<?xml version="1.0" encoding="UTF-8"?>
<!DOCTYPE svg PUBLIC "-//W3C//DTD SVG 1.1//EN" "http://www.w3.org/Graphics/SVG/1.1/DTD/svg11.dtd">
<!-- Creator: CorelDRAW 2018 (64-Bit 评估版) -->
<svg xmlns="http://www.w3.org/2000/svg" xml:space="preserve" width="297mm" height="210mm" version="1.1" style="shape-rendering:geometricPrecision; text-rendering:geometricPrecision; image-rendering:optimizeQuality; fill-rule:evenodd; clip-rule:evenodd"
viewBox="0 0 29700 21000"
 xmlns:xlink="http://www.w3.org/1999/xlink">
 <defs>
  <style type="text/css">
   <![CDATA[
    .fil0 {fill:#222222}
   ]]>
  </style>
 </defs>
 <g id="图层_x0020_1">
  <metadata id="CorelCorpID_0Corel-Layer"/>
  <path class="fil0" d="M3019.66 12064.43l1728.19 -3046.61 0 1250 3683.36 -2170.59c0,0 -2054.04,-283.69 -1947.78,-1275.45 0,0 31.32,-625.08 297.92,-885.48 -968.93,-614.06 -2039.02,128.46 -2467.6,1016.8 0,0 -384.4,-626.2 -378.2,-1773.2 0,0 31,-725.4 384.4,-1308.2 353.4,-582.8 1153.54,-1704.28 3100,-1749.35 0,0 254.12,-91.2 483.6,-234.65 0,0 248,-117.8 378.2,-539.4 0,0 260.4,303.8 80.6,1128.4 0,0 -328.6,713 -905.2,1209 0,0 384.4,-93 843.2,-601.4 0,0 310,-396.8 396.8,-1246.2l31 -452.6c0,0 452.6,365.8 372,1140.8 0,0 -86.8,775 -415.4,1395l-421.6 688.2c0,0 626.2,-229.4 998.2,-1252.4 257.2,-951.66 92,-2572.97 1506.6,-2678.4l279 -12.4c0,0 -520.68,600.44 -607.64,1163.59 -179.12,1478.66 -279.08,2785.35 -1301.96,3889.41 1392.41,-760.23 1513.06,-2481.62 1596.47,-3304.64 72.1,-711.42 165.52,-1835.2 1660.02,-1835.2 0,0 -417.39,719.05 -489.8,1277.2 -72.37,557.91 -150.29,1996.44 -485.09,2783.84 -334.8,787.4 -502.2,1376.4 -1364,2108 0,0 657.66,229.85 2003.06,-1282.95 521.38,-672.01 1049.23,-2198.21 716.24,-3005.97l-685.34 933.77c-77.82,106.03 37.9,-1385.43 568.15,-2772.85l267.73 1198.27c55.02,246.22 417.56,430.86 490.84,1185.88 16.88,189.08 83.29,693.8 -98.42,1553.89 -181.71,860.09 -386.13,1273.66 -1228.81,2165 0,0 -1154.33,924.98 -2033.45,1419.96l-4036.2 2238.2 -2999.09 1682.73z"/>
 </g>
</svg>
